<svg xmlns="http://www.w3.org/2000/svg" width="185.90467" height="50" viewBox="0 0 1857.7037 499.6386"><defs><style>.cls-1{fill:#231f20;}.cls-2{fill:#636871;}.cls-3{fill:#9388a7;}.cls-4{fill:#4e415c;}</style></defs><title>Asset 1</title><g id="Layer_2" data-name="Layer 2"><g id="Layer_1-2" data-name="Layer 1"><path class="cls-1" d="M249.8057,417.8769l36.34,36.332-36.34,36.3457-36.3389-36.3457,36.3389-36.332m0-9.082-45.4219,45.414,45.4219,45.43,45.4229-45.43-45.4229-45.414Z"/><rect class="cls-1" x="422.8873" y="218.5058" width="62.6279" height="62.6279" transform="translate(-43.6168 394.3394) rotate(-45)"/><path class="cls-1" d="M454.2032,206.6679,497.3477,249.82l-43.1445,43.15-43.1524-43.15,43.1524-43.1524m0-2.2715L408.7813,249.82l45.4219,45.42,45.416-45.42-45.416-45.4239Z"/><polygon class="cls-2" points="431.488 317.949 386.066 363.373 340.65 317.949 386.066 272.533 431.488 317.949"/><rect class="cls-3" x="251.7552" y="271.7235" width="64.2324" height="160.5882" transform="translate(-165.7664 303.7973) rotate(-44.9957)"/><polygon class="cls-4" points="227.099 386.086 181.676 431.502 0 249.82 45.416 204.396 227.099 386.086"/><path class="cls-1" d="M249.8057,9.0839,422.4063,181.6894l-36.34,36.332-172.6-172.5937L249.8057,9.0839m0-9.0839L204.3838,45.4277,386.0665,227.1054l45.4218-45.416L249.8057,0Z"/><path class="cls-1" d="M181.6758,77.2187l172.6,172.6016-36.3388,36.3379-172.6-172.6055,36.3388-36.334m0-9.082-45.4218,45.416L317.9366,295.24l45.4228-45.42L181.6758,68.1367Z"/><path class="cls-1" d="M113.5459,145.35,218.0157,249.82l-36.34,36.3379L77.2071,181.6894l36.3388-36.34m0-9.084L68.1241,181.6894,181.6758,295.24l45.4229-45.42L113.5459,136.2656Z"/><path class="cls-4" d="M805.1475,279.8544,754.0362,124.7822,700.5977,278.6943l-14.7041,1.16L627.65,101.0459a35.0043,35.0043,0,0,0-5.3125-10.5508,16.3894,16.3894,0,0,0-8.375-5.32l-13.2481-4.0762-.2949-6.2617q14.2734.5829,33.7861.59,17.6148,0,39.8955-.59l.583,6.2617-13.6875,3.9375a8.4018,8.4018,0,0,0-4.372,2.1836,6.1056,6.1056,0,0,0-1.3106,4.2148,28.7718,28.7718,0,0,0,1.3858,7.6485q1.3842,4.7315,3.7138,12.4511L699.87,236.61,753.8917,75.1318,766.9961,74.11l52.5674,163.9609L860.626,111.6787q2.6148-8.3,4.0772-13.25a29.538,29.538,0,0,0,1.4551-7.57,4.8456,4.8456,0,0,0-1.3116-3.7891,10.1508,10.1508,0,0,0-4.2207-1.8945l-13.6875-3.6387-.2949-6.6992q15.731.5829,31.8906.59,15.7237,0,30.5742-.59l.584,6.2617-14.7041,4.666a14.973,14.973,0,0,0-6.9189,4.0781q-2.55,2.7657-5.0244,9.6094L819.8516,278.6943Z"/><path class="cls-4" d="M955.7037,75.4267h35.3847q32.6133,0,68.8711-.59l.8731,1.1679-8.4453,44.9883-5.82,1.0235L1037.5337,88.38H970.2623v80.0879h13.2558c10.0918,0,8.5059-.1015,20.9336-.289a4.9971,4.9971,0,0,0,4.9473-3.7891l5.1015-19.6582,7.8594-.2891q-.4335,20.379-.4394,30.1407,0,9.4657.4394,29.7011l-7.8594.584-5.2441-19.9472c-.7773-2.5274-2.2852-3.8321-4.5176-3.9336-12.6133-.1875-11.1777-.2891-21.3711-.2891H970.2623v53q0,16.1572.2949,31.8867h69.8945l17.7637-36.9863,6.5488-1.16-3.2051,50.666-1.0156,1.0215q-37.7139-.4393-69.5976-.4316H956.2876q-17.625,0-36.1137.4316l-.5772-6.26,17.91-5.3887a4.8274,4.8274,0,0,0,3.9258-4.5156q.1522-5.8155.2207-13.0293.0732-7.2071.0742-15.94V115.8994q0-7.4238-.0742-13.3985-.0762-5.9648-.2207-10.7715A4.9584,4.9584,0,0,0,937.94,86.78l-18.0552-5.6816-.2881-6.2617Q938.3782,75.42,955.7037,75.4267Z"/><path class="cls-4" d="M1143.3951,233.9931q0,8.7335.07,15.7207.0762,6.99.2187,12.67.1524,4.5177,3.7891,5.6778l16.1582,4.8047.4395,6.26q-17.332-.4393-34.65-.4316-17.625,0-36.1133.4316l-.584-6.26,17.9082-5.3887a4.829,4.829,0,0,0,3.9336-4.5156q.1405-5.8155.2207-13.0293.0645-7.2071.0684-15.94V115.8994q0-7.4238-.0684-13.3985-.0762-5.9648-.2207-10.7715a4.9645,4.9645,0,0,0-3.4941-4.9492l-18.0586-5.6816-.2891-6.2617q18.7823.5829,36.7031.59,3.5274,0,8.9688-.2265,5.4492-.2139,13.25-.5079c5.3008-.1933,9.7031-.3379,13.2422-.4316q5.288-.1524,8.3808-.15,33.5538,0,50.334,12.52,16.7637,12.5332,16.7734,36.5528,0,21.6972-11.5175,35.16-11.52,13.4737-35.1289,20.75,9.2958,13.9834,17.125,27.0117,7.81,13.04,14.541,23.8809,6.7,10.8486,12.2949,19.15a89.157,89.157,0,0,0,10.4,13.0977,43.048,43.048,0,0,0,4.9433,4.3046,26.5939,26.5939,0,0,0,5.168,2.9786,47.9241,47.9241,0,0,0,5.6836,2.039q2.9912.876,6.625,1.7442l.4375,6.41a145.0592,145.0592,0,0,1-17.6133,1.3125q-5.9853,0-10.5019-.2949a45.7969,45.7969,0,0,1-8.0664-1.16,32.9791,32.9791,0,0,1-6.4219-2.26,31.4351,31.4351,0,0,1-5.6836-3.5684A54.1987,54.1987,0,0,1,1210.78,260.71q-5.8359-8.5166-12.1074-19.2949-6.2665-10.7754-13.06-22.9277-6.794-12.1583-14.3145-23.8125c-1.48-2.334-2.7344-4.1719-3.7637-5.5313a13.3142,13.3142,0,0,0-3.4-3.2012,11.8191,11.8191,0,0,0-4.2774-1.6054,47.0638,47.0638,0,0,0-6.2734-.5821l-10.1875-.2949Zm0-61.4492q8.8827.4337,16.4609.4395,25.1778,0,36.91-10.7012,11.704-10.7081,11.7168-33.5664,0-22.1309-11.2168-32.3242-11.2149-10.1895-35.09-10.1934c-2.709,0-5.6328.0937-8.7324.2949-3.1094.1875-6.4609.4824-10.0488.8653Z"/><path class="cls-4" d="M1316.3775,116.3388V233.9931q0,17.1827.2949,28.5352c.0938,2.7168,1.3106,4.373,3.6387,4.9492l17.3262,5.0937.2949,6.5547q-18.208-.4393-29.8535-.4316-11.3585,0-30.1426.4316l-.582-6.26,17.914-5.3887q3.7853-1.166,3.9278-4.5156.293-11.7891.2949-28.9688V115.8994q0-14.5548-.2949-24.17a4.96,4.96,0,0,0-3.4942-4.9492l-18.0527-5.6816-.2949-6.2617q18.791.5829,29.707.59,6.5508,0,13.25-.59L1442.62,227.583v-112.26q0-14.1328-.2871-24.32c-.1016-2.2344-1.3633-3.7324-3.791-4.51l-17.18-4.957-.2891-6.6992q18.6387.5829,30.1406.59,11.6485,0,29.8457-.59l.584,6.2617L1463.2955,86.78a4.9666,4.9666,0,0,0-3.4942,4.9492q-.293,9.6095-.289,24.17V278.6943l-12.2325,1.16Z"/><path class="cls-4" d="M1540.4654,75.4267H1575.85q32.6133,0,68.8692-.59l.8789,1.1679-8.4492,44.9883-5.82,1.0235L1622.3013,88.38H1555.03v80.0879h13.25c10.0918,0,8.5039-.1015,20.9317-.289a4.9975,4.9975,0,0,0,4.9492-3.7891l5.1-19.6582,7.8613-.2891q-.4335,20.379-.4336,30.1407,0,9.4657.4336,29.7011l-7.8613.584-5.2441-19.9472c-.7774-2.5274-2.2832-3.8321-4.51-3.9336-12.6211-.1875-11.1777-.2891-21.373-.2891H1555.03v53q0,16.1572.2891,31.8867h69.8926l17.7656-36.9863,6.5488-1.16-3.1992,50.666-1.0234,1.0215q-37.711-.4393-69.5977-.4316h-34.6582q-17.6133,0-36.1055.4316l-.5839-6.26,17.91-5.3887a4.8353,4.8353,0,0,0,3.9317-4.5156q.1435-5.8155.2128-13.0293.0762-7.2071.0762-15.94V115.8994q0-7.4238-.0762-13.3985-.0732-5.9648-.2128-10.7715a4.9736,4.9736,0,0,0-3.4942-4.9492l-18.0586-5.6816-.289-6.2617Q1523.1373,75.42,1540.4654,75.4267Z"/><path class="cls-4" d="M1728.1626,233.9931q0,8.7335.07,15.7207.0732,6.99.2187,12.67.1407,4.5177,3.7891,5.6778l16.1582,4.8047.4394,6.26q-17.3321-.4393-34.6582-.4316-17.6162,0-36.1054.4316l-.584-6.26,17.9082-5.3887a4.8371,4.8371,0,0,0,3.9336-4.5156q.1406-5.8155.2129-13.0293.076-7.2071.0761-15.94V115.8994q0-7.4238-.0761-13.3985-.0762-5.9648-.2129-10.7715a4.9735,4.9735,0,0,0-3.4942-4.9492L1677.78,81.0986l-.289-6.2617q18.7792.5829,36.6953.59,3.53,0,8.9765-.2265,5.4493-.2139,13.2422-.5079,7.9512-.29,13.2422-.4316,5.297-.1524,8.3867-.15,33.5566,0,50.3282,12.52,16.7666,12.5332,16.7734,36.5528,0,21.6972-11.5156,35.16-11.5107,13.4737-35.1289,20.75,9.2958,13.9834,17.125,27.0117,7.8193,13.04,14.541,23.8809,6.7089,10.8486,12.3008,19.15a89.0354,89.0354,0,0,0,10.3945,13.0977,42.9078,42.9078,0,0,0,4.9492,4.3046,26.4214,26.4214,0,0,0,5.168,2.9786,47.4254,47.4254,0,0,0,5.6836,2.039q2.9824.876,6.623,1.7442l.4395,6.41a145.2833,145.2833,0,0,1-17.6192,1.3125q-5.9764,0-10.5019-.2949a45.8247,45.8247,0,0,1-8.0664-1.16,33.18,33.18,0,0,1-6.4238-2.26,31.4316,31.4316,0,0,1-5.6836-3.5684A54.3975,54.3975,0,0,1,1795.54,260.71q-5.8242-8.5166-12.1-19.2949-6.2754-10.7754-13.0664-22.9277-6.7939-12.1583-14.3164-23.8125c-1.4727-2.334-2.7324-4.1719-3.7637-5.5313a13.2877,13.2877,0,0,0-3.3926-3.2012,11.8576,11.8576,0,0,0-4.2851-1.6054,46.9,46.9,0,0,0-6.2715-.5821l-10.1817-.2949Zm0-61.4492q8.8741.4337,16.4532.4395,25.1893,0,36.91-10.7012,11.7159-10.7081,11.7188-33.5664,0-22.1309-11.211-32.3242-11.2148-10.1895-35.09-10.1934-4.0752,0-8.7383.2949c-3.1055.1875-6.4551.4824-10.043.8653Z"/><path class="cls-4" d="M724.1211,347.4326h-37.87V379.55h33.4033v7.1211H686.251v37.8554h-7.9033V340.3134h45.7734Z"/><path class="cls-4" d="M749.7461,417.4013h37.8692v7.125H741.8418V340.3134h7.9043Z"/><path class="cls-4" d="M796.6231,382.0459q0-19.8692,10.1367-31.6778,10.1338-11.7978,27.4756-11.8047,17.8491,0,27.7959,11.68,9.9448,11.6865,9.9424,31.8028,0,19.9863-10.0684,31.7363-10.078,11.751-27.4131,11.748-17.0874,0-27.4746-11.875Q796.62,401.7929,796.6231,382.0459Zm8.1611,0q0,16.6171,8.0977,26.2968,8.0933,9.6915,21.61,9.6856,14.0215,0,21.6729-9.5606t7.6465-26.4218q0-16.9923-7.709-26.49-7.7154-9.4922-21.8672-9.49-13.7666,0-21.61,9.5527Q804.7868,365.1806,804.7842,382.0459Z"/><path class="cls-4" d="M888.1875,382.0459q0-19.8692,10.1387-31.6778,10.1324-11.7978,27.4746-11.8047,17.8485,0,27.7954,11.68,9.9463,11.6865,9.9414,31.8028,0,19.9863-10.0664,31.7363-10.078,11.751-27.4126,11.748-17.0874,0-27.4755-11.875Q888.1841,401.7929,888.1875,382.0459Zm8.1622,0q0,16.6171,8.0976,26.2968,8.0918,9.6915,21.6113,9.6856,14.0193,0,21.6724-9.5606,7.6494-9.56,7.6465-26.4218,0-16.9923-7.709-26.49-7.7168-9.4922-21.8677-9.49-13.7665,0-21.61,9.5527Q896.3521,365.1806,896.35,382.0459Z"/><path class="cls-4" d="M1038.1236,424.5263H1028.69L1007.1412,390.29H991.7173v34.2363H983.813V340.3134h19.377q15.0468,0,22.5078,6.68,7.45,6.6915,7.459,18.9336a25.0209,25.0209,0,0,1-4.85,14.6211,23.0982,23.0982,0,0,1-13.0039,8.3731Zm-46.4063-41.1054h13.9q9.4278,0,14.5332-5.125a17.3618,17.3618,0,0,0,5.1-12.7461q0-18.3691-21.164-18.3672H991.7173Z"/><path class="cls-4" d="M1054.9654,424.5263V340.3134h7.9043v84.2129Z"/><path class="cls-4" d="M1087.147,424.5263V340.3134h10.84l21.9218,35.6114,24.2266,39.4824q-.2548-12.9961-.2559-39.3574V340.3134h7.91v84.2129h-10.84l-21.8047-35.3594-24.3516-39.7324q.252,13.4913.2578,39.4864v35.6054Z"/><path class="cls-4" d="M1240.7388,378.1709V418.28q-10.0781,7.2423-25.5,7.25-19.6377,0-31.5527-11.56-11.93-11.5547-11.9238-31.6719,0-18.9873,11.6679-31.2383,11.6661-12.2432,29.5137-12.2461,15.167,0,24.99,5.8711v8.6192q-9.8232-6.7354-23.9687-6.7422-15.044,0-24.5449,9.8047-9.4951,9.8115-9.4981,25.9316,0,16.6171,9.4356,26.0449,9.4365,9.4484,26.0058,9.4356a38.1863,38.1863,0,0,0,17.4707-3.8711V385.0459h-20.2734v-6.875Z"/><path class="cls-4" d="M1376.3912,424.5263h-11.2227l-9.8164-8.9941q-9.9464,9.9932-27.4141,9.998-13.6436,0-22.3125-6.31-8.666-6.3135-8.6679-16.4336a16.8317,16.8317,0,0,1,5.23-12.4961q5.2237-5.1182,15.2989-9.2461-6.7647-6.9932-9.502-11.9941a21.4941,21.4941,0,0,1-2.7363-10.4942,19.03,19.03,0,0,1,6.18-14.68q6.1816-5.6923,16.7676-5.6894,10.0664,0,16.51,6.1855a19.9708,19.9708,0,0,1,6.4375,14.93,19.6043,19.6043,0,0,1-4.8437,12.9961q-4.8458,5.751-16.1914,10.6211,7.1426,6.3691,24.2265,21.7422a30.9342,30.9342,0,0,0,3.82-12.4961h7.7774a41.3624,41.3624,0,0,1-5.8653,17.6211Zm-48.836-6.498q13.7754,0,22.1875-7.6211-25.5-22.8663-26.9043-24.2383-8.9208,3.753-13.3242,7.3691a11.4736,11.4736,0,0,0-4.3965,9.2481q0,6.999,6.3106,11.1211Q1317.7418,418.0292,1327.5552,418.0283Zm.3828-72.34a15.398,15.398,0,0,0-10.3867,3.4375q-4.02,3.4248-4.0156,9.5547a17.1278,17.1278,0,0,0,2.1641,8.2481q2.1649,3.999,8.9277,10.8652,9.5566-4.2334,13.9551-8.4941a13.5645,13.5645,0,0,0,4.4043-10.1172,13.1114,13.1114,0,0,0-3.8887-9.5606Q1335.2017,345.6787,1327.938,345.6884Z"/><path class="cls-4" d="M1472.3912,340.3134v7.1192h-23.8438v77.0937h-7.9043V347.4326h-23.7109v-7.1192Z"/><path class="cls-4" d="M1488.6119,424.5263V340.3134h7.9043v84.2129Z"/><path class="cls-4" d="M1528.69,417.4013h37.8711v7.125h-45.7754V340.3134h7.9043Z"/><path class="cls-4" d="M1591.5572,417.4013h38.6347v7.125h-46.539V340.3134h45.7734v7.1192h-37.8691v31.49h33.4043v7.1191h-33.4043Z"/><path class="cls-4" d="M1745.4439,343.6884v8.1231a53.04,53.04,0,0,0-9.9414-4.0645,47.5227,47.5227,0,0,0-11.9883-1.1855q-14.792,0-24.67,9.8047-9.8818,9.8115-9.8809,25.5547,0,16.4853,9.7539,26.3593,9.7471,9.879,25.9453,9.8731,12.6183,0,21.0391-6.4981v8.5q-7.7812,5.3732-21.4219,5.375-19.5058,0-31.49-11.623t-11.9883-31.9863q0-18.9873,12.3711-30.8614,12.3633-11.874,30.5977-11.8691Q1736.3911,339.19,1745.4439,343.6884Z"/><path class="cls-4" d="M1757.608,382.0459q0-19.8692,10.1367-31.6778,10.1337-11.7978,27.4746-11.8047,17.8506,0,27.7969,11.68,9.9434,11.6865,9.9414,31.8028,0,19.9863-10.0684,31.7363-10.0752,11.751-27.4121,11.748-17.0859,0-27.4746-11.875Q1757.6051,401.7929,1757.608,382.0459Zm8.1621,0q0,16.6171,8.0976,26.2968,8.0919,9.6915,21.6094,9.6856,14.0215,0,21.6738-9.5606,7.6494-9.56,7.6465-26.4218,0-16.9923-7.7109-26.49-7.7139-9.4922-21.8672-9.49-13.7637,0-21.6094,9.5527Q1765.77,365.1806,1765.77,382.0459Z"/><path class="cls-4" d="M1846.5455,423.7119a6.5422,6.5422,0,0,1,0-9.1211,6.8984,6.8984,0,0,1,9.3086,0,6.5473,6.5473,0,0,1,0,9.1211,6.866,6.866,0,0,1-9.3086,0Z"/></g></g></svg>